<svg width="72" height="14" viewBox="0 0 72 14" fill="none" xmlns="http://www.w3.org/2000/svg">
<path d="M2.33334 6.41677L7.00001 7.58335L11.6667 6.41669M2.33334 6.41677L7.00001 1.16669M2.33334 6.41677L7.00001 5.25007M11.6667 6.41669L7.00001 1.16669M11.6667 6.41669L7.00001 5.25007M7.00001 1.16669V5.25007M3.20834 8.75002L7.00008 12.8334L10.7917 8.75002L7.00001 9.62502L3.20834 8.75002Z" stroke="#6F4FF2" stroke-linecap="round" stroke-linejoin="round"/>
<path d="M25.9716 2.77273V11.5H24.9148V3.88068H24.8636L22.733 5.29545V4.22159L24.9148 2.77273H25.9716ZM28.5959 11.5682C28.3857 11.5682 28.2053 11.4929 28.0547 11.3423C27.9041 11.1918 27.8289 11.0114 27.8289 10.8011C27.8289 10.5909 27.9041 10.4105 28.0547 10.2599C28.2053 10.1094 28.3857 10.0341 28.5959 10.0341C28.8061 10.0341 28.9865 10.1094 29.1371 10.2599C29.2877 10.4105 29.363 10.5909 29.363 10.8011C29.363 10.9403 29.3274 11.0682 29.2564 11.1847C29.1882 11.3011 29.0959 11.3949 28.9794 11.4659C28.8658 11.5341 28.738 11.5682 28.5959 11.5682ZM33.6513 11.6193C33.0888 11.6193 32.5874 11.5227 32.1471 11.3295C31.7096 11.1364 31.3616 10.8679 31.103 10.5241C30.8474 10.1776 30.7082 9.77557 30.6854 9.31818H31.7593C31.782 9.59943 31.8786 9.84233 32.0491 10.0469C32.2195 10.2486 32.4425 10.4048 32.7181 10.5156C32.9937 10.6264 33.2991 10.6818 33.6343 10.6818C34.0093 10.6818 34.3417 10.6165 34.6314 10.4858C34.9212 10.3551 35.1485 10.1733 35.3133 9.94034C35.478 9.70739 35.5604 9.4375 35.5604 9.13068C35.5604 8.80966 35.4809 8.52699 35.3218 8.28267C35.1627 8.03551 34.9297 7.84233 34.6229 7.70312C34.3161 7.56392 33.9411 7.49432 33.4979 7.49432H32.7991V6.55682H33.4979C33.8445 6.55682 34.1485 6.49432 34.4099 6.36932C34.6741 6.24432 34.88 6.06818 35.0278 5.84091C35.1783 5.61364 35.2536 5.34659 35.2536 5.03977C35.2536 4.74432 35.1883 4.48722 35.0576 4.26847C34.9269 4.04972 34.7422 3.87926 34.5036 3.7571C34.2678 3.63494 33.9894 3.57386 33.6684 3.57386C33.3672 3.57386 33.0832 3.62926 32.8161 3.74006C32.5519 3.84801 32.336 4.00568 32.1684 4.21307C32.0008 4.41761 31.9099 4.66477 31.8957 4.95455H30.8729C30.89 4.49716 31.0278 4.09659 31.2863 3.75284C31.5448 3.40625 31.8829 3.13636 32.3005 2.94318C32.7209 2.75 33.1826 2.65341 33.6854 2.65341C34.2252 2.65341 34.6883 2.76278 35.0746 2.98153C35.461 3.19744 35.7579 3.48295 35.9653 3.83807C36.1726 4.19318 36.2763 4.5767 36.2763 4.98864C36.2763 5.48011 36.1471 5.89915 35.8886 6.24574C35.6329 6.59233 35.2849 6.83239 34.8445 6.96591V7.03409C35.3957 7.125 35.8261 7.35937 36.1357 7.73722C36.4454 8.11222 36.6002 8.5767 36.6002 9.13068C36.6002 9.60511 36.4709 10.0312 36.2124 10.4091C35.9567 10.7841 35.6073 11.0795 35.1641 11.2955C34.7209 11.5114 34.2167 11.6193 33.6513 11.6193ZM40.9504 11.6193C40.4504 11.6193 40.0001 11.5199 39.5995 11.321C39.1989 11.1222 38.8779 10.8494 38.6364 10.5028C38.395 10.1562 38.2629 9.76136 38.2401 9.31818H39.2629C39.3026 9.71307 39.4816 10.0398 39.7998 10.2983C40.1208 10.554 40.5043 10.6818 40.9504 10.6818C41.3083 10.6818 41.6265 10.598 41.9049 10.4304C42.1862 10.2628 42.4063 10.0327 42.5654 9.74006C42.7274 9.4446 42.8083 9.1108 42.8083 8.73864C42.8083 8.35795 42.7245 8.01847 42.5569 7.72017C42.3921 7.41903 42.1649 7.18182 41.8751 7.00852C41.5853 6.83523 41.2543 6.74716 40.8822 6.74432C40.6151 6.74148 40.341 6.78267 40.0597 6.8679C39.7785 6.95028 39.547 7.05682 39.3651 7.1875L38.3765 7.06818L38.9049 2.77273H43.439V3.71023H39.7913L39.4845 6.28409H39.5356C39.7146 6.14205 39.939 6.02415 40.2089 5.9304C40.4788 5.83665 40.76 5.78977 41.0526 5.78977C41.5867 5.78977 42.0626 5.91761 42.4802 6.1733C42.9007 6.42614 43.2302 6.77273 43.4688 7.21307C43.7103 7.65341 43.8311 8.15625 43.8311 8.72159C43.8311 9.27841 43.7061 9.77557 43.4561 10.2131C43.2089 10.6477 42.868 10.9915 42.4333 11.2443C41.9987 11.4943 41.5043 11.6193 40.9504 11.6193ZM48.8123 11.5V2.77273H54.0793V3.71023H49.8691V6.65909H53.8066V7.59659H49.8691V10.5625H54.1475V11.5H48.8123ZM55.3869 3.71023V2.77273H61.9323V3.71023H59.188V11.5H58.1312V3.71023H55.3869ZM63.4434 11.5V2.77273H64.5002V6.65909H69.1536V2.77273H70.2104V11.5H69.1536V7.59659H64.5002V11.5H63.4434Z" fill="#202020"/>
</svg>
