<svg width="44" height="45" viewBox="0 0 44 45" fill="none" xmlns="http://www.w3.org/2000/svg">
<rect y="0.5" width="44" height="44" rx="8" fill="#F1F1F2"/>
<path d="M19.3542 31.5C20.0593 32.1224 20.9856 32.5 22 32.5C23.0145 32.5 23.9407 32.1224 24.6458 31.5M28 18.5C28 16.9087 27.3679 15.3826 26.2427 14.2574C25.1174 13.1321 23.5913 12.5 22 12.5C20.4087 12.5 18.8826 13.1321 17.7574 14.2574C16.6322 15.3826 16 16.9087 16 18.5C16 21.5902 15.2205 23.706 14.3497 25.1054C13.6151 26.2859 13.2479 26.8761 13.2613 27.0408C13.2763 27.2231 13.3149 27.2926 13.4618 27.4016C13.5945 27.5 14.1926 27.5 15.3889 27.5H28.6112C29.8074 27.5 30.4056 27.5 30.5382 27.4016C30.6852 27.2926 30.7238 27.2231 30.7387 27.0408C30.7522 26.8761 30.3849 26.2859 29.6504 25.1054C28.7795 23.706 28 21.5902 28 18.5Z" stroke="#6F4FF2" stroke-width="1.5" stroke-linecap="round" stroke-linejoin="round"/>
<circle cx="28" cy="13.5" r="4" fill="#E01E1E"/>
</svg>
